Coordinates
version=1
nRows=12
nColumns=33
inDegrees=yes

Units are S.I. units (second, meters, Newtons, ...)
Angles are in degrees.

endheader
time	ground_thorax_rot_x	ground_thorax_rot_y	ground_thorax_rot_z	ground_thorax_tx	ground_thorax_ty	ground_thorax_tz	clav_prot_r	clav_elev_r	scapula_abduction_r	scapula_elevation_r	scapula_upward_rot_r	scapula_winging_r	shoulder_elv_r	plane_of_elev_r	axial_rot_r	elbow_flexion_r	pro_sup_r	wrist_flex_r	wrist_dev_r	clav_prot_l	clav_elev_l	scapula_abduction_l	scapula_elevation_l	scapula_upward_rot_l	scapula_winging_l	shoulder_elv_l	plane_of_elev_l	axial_rot_l	elbow_flexion_l	pro_sup_l	wrist_flex_l	wrist_dev_l
      2.22000000	    -40.98077636	     -2.37043987	     -0.98127072	    -42.28511062	    796.61147551	      5.55062066	      5.17715500	    -45.00000000	     45.00000000	    -45.00000000	     -6.85583553	  -1884.05005305	  -1012.00781031	     32.41511291	     36.94417285	      9.51774724	     29.64069767	     17.08168805	     12.80716415	     13.95616382	     45.00000000	    -45.00000000	    -43.62331856	    -11.81775883	   2236.81275052	  -3531.83742571	     31.14338484	     25.59862014	      0.62587656	     43.73538746	     10.17207599	    -20.07903189
      2.23000000	    -41.01930761	     -2.35772119	     -1.04025150	    -43.06166800	    797.03996367	      5.72029758	      5.07795008	    -45.00000000	     45.00000000	    -45.00000000	     -6.95143309	  -1884.35299762	  -1011.97842252	     32.65920519	     36.96312413	      9.51560478	     29.03262787	     17.30740142	     12.69673441	     13.48714921	     45.00000000	    -45.00000000	    -43.73259580	    -11.57122095	   2237.12199207	  -3531.90496381	     31.23024804	     25.66449209	      0.73859117	     43.05547718	     10.33280925	    -20.19892014
      2.24000000	    -41.07849423	     -2.32150087	     -1.15652333	    -44.07165799	    797.46001591	      5.89260485	      5.01315644	    -45.00000000	     45.00000000	    -45.00000000	     -6.76499197	  -1884.53204079	  -1011.89790221	     32.65936270	     36.72676565	      9.62332383	     28.52230054	     17.29611130	     12.64855692	     13.43508259	     44.93416048	    -45.00000000	    -43.85610437	    -11.44199771	   2237.34692546	  -3531.83655908	     31.21261913	     25.53703184	      1.05977518	     42.52169422	     10.37058373	    -20.30086551
      2.25000000	    -41.07909672	     -2.20476166	     -1.24843248	    -45.31203515	    797.89498744	      6.06427067	      4.94619208	    -45.00000000	     45.00000000	    -45.00000000	     -6.66819635	  -1884.74108994	  -1011.69795125	     32.70526465	     36.39634086	      9.62723967	     28.07822018	     17.35150500	     12.58422684	     13.34694039	     45.00000000	    -45.00000000	    -44.03358422	    -11.32257189	   2237.46983593	  -3531.84041636	     31.21589707	     25.31073216	      1.18079616	     42.09050907	     10.43422667	    -20.39034058
      2.26000000	    -41.08562491	     -2.15075186	     -1.27796593	    -46.76988761	    798.35534162	      6.23082013	      4.93418503	    -45.00000000	     45.00000000	    -45.00000000	     -6.67066761	  -1884.98159286	  -1011.48540482	     32.74309132	     36.05917816	      9.69505556	     27.67391861	     17.40467192	     12.52112611	     13.36805011	     45.00000000	    -45.00000000	    -44.23036892	    -11.55368561	   2237.52896993	  -3531.72513242	     31.24454971	     24.89362325	      1.41232458	     41.66925054	     10.44679260	    -20.46908769
      2.27000000	    -41.18651273	     -2.22878811	     -1.25403133	    -48.44470201	    798.85215741	      6.38608324	      4.86267495	    -45.00000000	     45.00000000	    -45.00000000	     -6.73439482	  -1885.22338507	  -1011.41731341	     32.75847644	     35.84105029	      9.78125969	     27.38343942	     17.52628149	     12.49639189	     13.29856169	     45.00000000	    -45.00000000	    -44.39013538	    -11.48546611	   2237.84276512	  -3531.77754318	     31.15603304	     24.37715678	      1.69950136	     41.32106751	     10.48701074	    -20.62877672
      2.28000000	    -41.22337155	     -2.23436126	     -1.26406573	    -50.33650478	    799.39396193	      6.52597434	      4.84368249	    -45.00000000	     45.00000000	    -45.00000000	     -6.74277487	  -1885.50381605	  -1011.26545174	     32.76677463	     35.66043557	      9.91115555	     27.11809393	     17.63281691	     12.40668495	     13.25552731	     45.00000000	    -45.00000000	    -44.53370215	    -11.60250903	   2238.06081513	  -3531.74980545	     31.07776049	     23.74196662	      2.07583244	     40.98414090	     10.46071974	    -20.75179419
      2.29000000	    -41.22863971	     -2.26169391	     -1.18854648	    -52.44710311	    799.98799153	      6.64552343	      4.82546490	    -45.00000000	     45.00000000	    -45.00000000	     -6.82135888	  -1885.82580453	  -1011.04068113	     32.80134629	     35.54100584	     10.00258572	     26.88517454	     17.75478176	     12.33162004	     13.27427108	     45.00000000	    -45.00000000	    -44.66578175	    -11.80523837	   2238.25238673	  -3531.71462872	     31.03254971	     23.02685484	      2.34820791	     40.64894545	     10.45140446	    -20.86792583
      2.30000000	    -41.28517820	     -2.27556971	     -1.10935263	    -54.77313769	    800.63813417	      6.74282466	      4.83073216	    -45.00000000	     45.00000000	    -45.00000000	     -6.94766865	  -1886.16040283	  -1010.83233085	     32.81258470	     35.45336737	     10.12658278	     26.65701368	     17.88039878	     12.23135722	     13.34536696	     45.00000000	    -45.00000000	    -44.85196355	    -12.11126872	   2238.43742215	  -3531.67400351	     30.97060106	     22.28081699	      2.72585564	     40.26484119	     10.40546403	    -20.97712517
      2.31000000	    -41.40633717	     -2.39513143	     -0.96944554	    -57.30898820	    801.34498016	      6.81521350	      4.78745544	    -45.00000000	     45.00000000	    -45.00000000	     -7.10052134	  -1886.49403362	  -1010.73882436	     32.81906089	     35.51969572	     10.22018535	     26.46970431	     18.03948650	     12.17535294	     13.34825608	     44.89958620	    -45.00000000	    -45.00000000	    -12.25689325	   2238.81327184	  -3531.61841620	     30.86318764	     21.51042501	      2.96065503	     39.90037898	     10.40709884	    -21.10710520
      2.32000000	    -41.38392679	     -2.49724707	     -0.80956902	    -60.05473818	    802.11114867	      6.85825989	      4.80850594	    -45.00000000	     45.00000000	    -45.00000000	     -7.25311055	  -1886.91488925	  -1010.49137951	     32.86250651	     35.59819747	     10.36968824	     26.24704890	     18.15935576	     12.03400597	     13.43425627	     45.00000000	    -45.00000000	    -45.00000000	    -12.78533218	   2239.02399646	  -3531.46573689	     30.78416409	     20.69480291	      3.40101309	     39.46709788	     10.31610139	    -21.19551347
      2.33000000	    -41.42379235	     -2.71022504	     -0.53496906	    -62.99224523	    802.93360540	      6.86876304	      4.85336828	    -45.00000000	     45.00000000	    -45.00000000	     -7.57903915	  -1887.30709342	  -1010.24395980	     32.85810441	     35.82912816	     10.49736148	     26.03403982	     18.30167769	     11.94782696	     13.49183530	     45.00000000	    -45.00000000	    -45.00000000	    -13.06195503	   2239.41435968	  -3531.47045463	     30.65202964	     19.84979944	      3.66562438	     39.03110994	     10.29700094	    -21.30323304
